solid CATIA STL
  facet normal  -0.000000e+000  1.000000e+000  0.000000e+000
    outer loop
      vertex  0.000000e+000  1.000000e-001 -3.500000e-001
      vertex  1.387779e-017  1.000000e-001  2.775558e-017
      vertex  5.000000e-001  1.000000e-001  2.775558e-017
    endloop
  endfacet
  facet normal  0.000000e+000  1.000000e+000  0.000000e+000
    outer loop
      vertex  0.000000e+000  1.000000e-001 -3.500000e-001
      vertex  5.000000e-001  1.000000e-001  2.775558e-017
      vertex  6.668923e-001  1.000000e-001 -2.086989e-001
    endloop
  endfacet
  facet normal  0.000000e+000  1.000000e+000  0.000000e+000
    outer loop
      vertex  0.000000e+000  1.000000e-001 -3.500000e-001
      vertex  6.668923e-001  1.000000e-001 -2.086989e-001
      vertex  7.500000e-001  1.000000e-001 -2.560979e-001
    endloop
  endfacet
  facet normal  0.000000e+000  1.000000e+000  0.000000e+000
    outer loop
      vertex  0.000000e+000  1.000000e-001 -3.500000e-001
      vertex  7.500000e-001  1.000000e-001 -2.560979e-001
      vertex  1.000000e+000  1.000000e-001 -3.500000e-001
    endloop
  endfacet
  facet normal  -0.000000e+000  9.999999e-001  0.000000e+000
    outer loop
      vertex  1.000000e+000  1.000000e-001 -3.500000e-001
      vertex  7.500000e-001  1.000000e-001 -2.560979e-001
      vertex  8.331509e-001  1.000000e-001 -2.422181e-001
    endloop
  endfacet
  facet normal  -0.000000e+000  1.000000e+000  0.000000e+000
    outer loop
      vertex  1.000000e+000  1.000000e-001 -3.500000e-001
      vertex  8.331509e-001  1.000000e-001 -2.422181e-001
      vertex  8.886732e-001  1.000000e-001 -1.941979e-001
    endloop
  endfacet
  facet normal  -0.000000e+000  1.000000e+000  0.000000e+000
    outer loop
      vertex  1.000000e+000  1.000000e-001 -3.500000e-001
      vertex  8.886732e-001  1.000000e-001 -1.941979e-001
      vertex  1.000000e+000  1.000000e-001  2.775558e-017
    endloop
  endfacet
  facet normal  0.000000e+000  1.000000e+000  0.000000e+000
    outer loop
      vertex  1.664902e-001  1.000000e-001  2.359965e-001
      vertex  2.500000e-001  1.000000e-001  2.500000e-001
      vertex  1.109025e-001  1.000000e-001  1.890381e-001
    endloop
  endfacet
  facet normal  0.000000e+000  1.000000e+000  0.000000e+000
    outer loop
      vertex  1.109025e-001  1.000000e-001  1.890381e-001
      vertex  2.500000e-001  1.000000e-001  2.500000e-001
      vertex  3.335518e-001  1.000000e-001  2.043026e-001
    endloop
  endfacet
  facet normal  0.000000e+000  1.000000e+000  0.000000e+000
    outer loop
      vertex  1.109025e-001  1.000000e-001  1.890381e-001
      vertex  3.335518e-001  1.000000e-001  2.043026e-001
      vertex  1.387779e-017  1.000000e-001  2.775558e-017
    endloop
  endfacet
  facet normal  0.000000e+000  1.000000e+000  0.000000e+000
    outer loop
      vertex  1.387779e-017  1.000000e-001  2.775558e-017
      vertex  3.335518e-001  1.000000e-001  2.043026e-001
      vertex  5.000000e-001  1.000000e-001  2.775558e-017
    endloop
  endfacet
  facet normal  0.000000e+000 -1.000000e+000  0.000000e+000
    outer loop
      vertex  0.000000e+000  0.000000e+000 -3.500000e-001
      vertex  1.000000e+000  0.000000e+000 -3.500000e-001
      vertex  7.500000e-001  0.000000e+000 -2.560979e-001
    endloop
  endfacet
  facet normal  -0.000000e+000 -1.000000e+000  0.000000e+000
    outer loop
      vertex  0.000000e+000  0.000000e+000 -3.500000e-001
      vertex  7.500000e-001  0.000000e+000 -2.560979e-001
      vertex  6.668923e-001  0.000000e+000 -2.086989e-001
    endloop
  endfacet
  facet normal  -0.000000e+000 -1.000000e+000  0.000000e+000
    outer loop
      vertex  0.000000e+000  0.000000e+000 -3.500000e-001
      vertex  6.668923e-001  0.000000e+000 -2.086989e-001
      vertex  5.000000e-001  0.000000e+000  2.775558e-017
    endloop
  endfacet
  facet normal  -0.000000e+000 -1.000000e+000  0.000000e+000
    outer loop
      vertex  0.000000e+000  0.000000e+000 -3.500000e-001
      vertex  5.000000e-001  0.000000e+000  2.775558e-017
      vertex  1.387779e-017  0.000000e+000  2.775558e-017
    endloop
  endfacet
  facet normal  0.000000e+000 -1.000000e+000  -0.000000e+000
    outer loop
      vertex  1.000000e+000  0.000000e+000 -3.500000e-001
      vertex  1.000000e+000  0.000000e+000  2.775558e-017
      vertex  8.886732e-001  0.000000e+000 -1.941979e-001
    endloop
  endfacet
  facet normal  0.000000e+000 -1.000000e+000  -0.000000e+000
    outer loop
      vertex  1.000000e+000  0.000000e+000 -3.500000e-001
      vertex  8.886732e-001  0.000000e+000 -1.941979e-001
      vertex  8.331509e-001  0.000000e+000 -2.422181e-001
    endloop
  endfacet
  facet normal  0.000000e+000 -9.999999e-001  -0.000000e+000
    outer loop
      vertex  1.000000e+000  0.000000e+000 -3.500000e-001
      vertex  8.331509e-001  0.000000e+000 -2.422181e-001
      vertex  7.500000e-001  0.000000e+000 -2.560979e-001
    endloop
  endfacet
  facet normal  0.000000e+000 -1.000000e+000  0.000000e+000
    outer loop
      vertex  1.664902e-001  0.000000e+000  2.359965e-001
      vertex  1.109025e-001  0.000000e+000  1.890381e-001
      vertex  2.500000e-001  0.000000e+000  2.500000e-001
    endloop
  endfacet
  facet normal  0.000000e+000 -1.000000e+000  -0.000000e+000
    outer loop
      vertex  2.500000e-001  0.000000e+000  2.500000e-001
      vertex  1.109025e-001  0.000000e+000  1.890381e-001
      vertex  3.335518e-001  0.000000e+000  2.043026e-001
    endloop
  endfacet
  facet normal  0.000000e+000 -9.999999e-001  0.000000e+000
    outer loop
      vertex  1.109025e-001  0.000000e+000  1.890381e-001
      vertex  1.387779e-017  0.000000e+000  2.775558e-017
      vertex  3.335518e-001  0.000000e+000  2.043026e-001
    endloop
  endfacet
  facet normal  0.000000e+000 -1.000000e+000  -0.000000e+000
    outer loop
      vertex  3.335518e-001  0.000000e+000  2.043026e-001
      vertex  1.387779e-017  0.000000e+000  2.775558e-017
      vertex  5.000000e-001  0.000000e+000  2.775558e-017
    endloop
  endfacet
  facet normal -1.000000e+000  0.000000e+000  3.965082e-017
    outer loop
      vertex  1.387779e-017  1.000000e-001  2.775558e-017
      vertex  0.000000e+000  1.000000e-001 -3.500000e-001
      vertex  1.387779e-017  0.000000e+000  2.775558e-017
    endloop
  endfacet
  facet normal -1.000000e+000  0.000000e+000  3.965082e-017
    outer loop
      vertex  1.387779e-017  0.000000e+000  2.775558e-017
      vertex  0.000000e+000  1.000000e-001 -3.500000e-001
      vertex  0.000000e+000  0.000000e+000 -3.500000e-001
    endloop
  endfacet
  facet normal  -0.000000e+000  0.000000e+000 -1.000000e+000
    outer loop
      vertex  0.000000e+000  1.000000e-001 -3.500000e-001
      vertex  1.000000e+000  1.000000e-001 -3.500000e-001
      vertex  0.000000e+000  0.000000e+000 -3.500000e-001
    endloop
  endfacet
  facet normal  0.000000e+000  0.000000e+000 -1.000000e+000
    outer loop
      vertex  0.000000e+000  0.000000e+000 -3.500000e-001
      vertex  1.000000e+000  1.000000e-001 -3.500000e-001
      vertex  1.000000e+000  0.000000e+000 -3.500000e-001
    endloop
  endfacet
  facet normal  1.000000e+000  0.000000e+000  0.000000e+000
    outer loop
      vertex  1.000000e+000  1.000000e-001 -3.500000e-001
      vertex  1.000000e+000  1.000000e-001  2.775558e-017
      vertex  1.000000e+000  0.000000e+000 -3.500000e-001
    endloop
  endfacet
  facet normal  1.000000e+000  0.000000e+000  0.000000e+000
    outer loop
      vertex  1.000000e+000  0.000000e+000 -3.500000e-001
      vertex  1.000000e+000  1.000000e-001  2.775558e-017
      vertex  1.000000e+000  0.000000e+000  2.775558e-017
    endloop
  endfacet
  facet normal -8.675562e-001  0.000000e+000  4.973392e-001
    outer loop
      vertex  1.000000e+000  0.000000e+000  2.775558e-017
      vertex  1.000000e+000  1.000000e-001  2.775558e-017
      vertex  8.886732e-001  0.000000e+000 -1.941979e-001
    endloop
  endfacet
  facet normal -8.675562e-001  0.000000e+000  4.973392e-001
    outer loop
      vertex  8.886732e-001  0.000000e+000 -1.941979e-001
      vertex  1.000000e+000  1.000000e-001  2.775558e-017
      vertex  8.886732e-001  1.000000e-001 -1.941979e-001
    endloop
  endfacet
  facet normal -6.541588e-001  0.000000e+000  7.563573e-001
    outer loop
      vertex  8.886732e-001  0.000000e+000 -1.941979e-001
      vertex  8.886732e-001  1.000000e-001 -1.941979e-001
      vertex  8.331509e-001  0.000000e+000 -2.422181e-001
    endloop
  endfacet
  facet normal -6.541588e-001  0.000000e+000  7.563573e-001
    outer loop
      vertex  8.331509e-001  0.000000e+000 -2.422181e-001
      vertex  8.886732e-001  1.000000e-001 -1.941979e-001
      vertex  8.331509e-001  1.000000e-001 -2.422181e-001
    endloop
  endfacet
  facet normal -1.646455e-001  0.000000e+000  9.863527e-001
    outer loop
      vertex  8.331509e-001  0.000000e+000 -2.422181e-001
      vertex  8.331509e-001  1.000000e-001 -2.422181e-001
      vertex  7.500000e-001  0.000000e+000 -2.560979e-001
    endloop
  endfacet
  facet normal -1.646455e-001  0.000000e+000  9.863527e-001
    outer loop
      vertex  7.500000e-001  0.000000e+000 -2.560979e-001
      vertex  8.331509e-001  1.000000e-001 -2.422181e-001
      vertex  7.500000e-001  1.000000e-001 -2.560979e-001
    endloop
  endfacet
  facet normal  4.954213e-001  0.000000e+000  8.686529e-001
    outer loop
      vertex  7.500000e-001  0.000000e+000 -2.560979e-001
      vertex  7.500000e-001  1.000000e-001 -2.560979e-001
      vertex  6.668923e-001  0.000000e+000 -2.086989e-001
    endloop
  endfacet
  facet normal  4.954213e-001  -0.000000e+000  8.686529e-001
    outer loop
      vertex  6.668923e-001  0.000000e+000 -2.086989e-001
      vertex  7.500000e-001  1.000000e-001 -2.560979e-001
      vertex  6.668923e-001  1.000000e-001 -2.086989e-001
    endloop
  endfacet
  facet normal  7.809907e-001  0.000000e+000  6.245427e-001
    outer loop
      vertex  6.668923e-001  0.000000e+000 -2.086989e-001
      vertex  6.668923e-001  1.000000e-001 -2.086989e-001
      vertex  5.000000e-001  0.000000e+000  2.775558e-017
    endloop
  endfacet
  facet normal  7.809907e-001  -0.000000e+000  6.245427e-001
    outer loop
      vertex  5.000000e-001  0.000000e+000  2.775558e-017
      vertex  6.668923e-001  1.000000e-001 -2.086989e-001
      vertex  5.000000e-001  1.000000e-001  2.775558e-017
    endloop
  endfacet
  facet normal  7.752733e-001  0.000000e+000  6.316260e-001
    outer loop
      vertex  5.000000e-001  0.000000e+000  2.775558e-017
      vertex  5.000000e-001  1.000000e-001  2.775558e-017
      vertex  3.335518e-001  0.000000e+000  2.043026e-001
    endloop
  endfacet
  facet normal  7.752733e-001  -0.000000e+000  6.316260e-001
    outer loop
      vertex  3.335518e-001  0.000000e+000  2.043026e-001
      vertex  5.000000e-001  1.000000e-001  2.775558e-017
      vertex  3.335518e-001  1.000000e-001  2.043026e-001
    endloop
  endfacet
  facet normal  4.798526e-001  0.000000e+000  8.773491e-001
    outer loop
      vertex  3.335518e-001  0.000000e+000  2.043026e-001
      vertex  3.335518e-001  1.000000e-001  2.043026e-001
      vertex  2.500000e-001  0.000000e+000  2.500000e-001
    endloop
  endfacet
  facet normal  4.798526e-001  -0.000000e+000  8.773491e-001
    outer loop
      vertex  2.500000e-001  0.000000e+000  2.500000e-001
      vertex  3.335518e-001  1.000000e-001  2.043026e-001
      vertex  2.500000e-001  1.000000e-001  2.500000e-001
    endloop
  endfacet
  facet normal -1.653778e-001  0.000000e+000  9.862303e-001
    outer loop
      vertex  2.500000e-001  0.000000e+000  2.500000e-001
      vertex  2.500000e-001  1.000000e-001  2.500000e-001
      vertex  1.664902e-001  0.000000e+000  2.359965e-001
    endloop
  endfacet
  facet normal -1.653778e-001  0.000000e+000  9.862303e-001
    outer loop
      vertex  1.664902e-001  0.000000e+000  2.359965e-001
      vertex  2.500000e-001  1.000000e-001  2.500000e-001
      vertex  1.664902e-001  1.000000e-001  2.359965e-001
    endloop
  endfacet
  facet normal -6.453230e-001  0.000000e+000  7.639099e-001
    outer loop
      vertex  1.664902e-001  0.000000e+000  2.359965e-001
      vertex  1.664902e-001  1.000000e-001  2.359965e-001
      vertex  1.109025e-001  0.000000e+000  1.890381e-001
    endloop
  endfacet
  facet normal -6.453230e-001  0.000000e+000  7.639099e-001
    outer loop
      vertex  1.109025e-001  0.000000e+000  1.890381e-001
      vertex  1.664902e-001  1.000000e-001  2.359965e-001
      vertex  1.109025e-001  1.000000e-001  1.890381e-001
    endloop
  endfacet
  facet normal -8.625244e-001  0.000000e+000  5.060152e-001
    outer loop
      vertex  1.109025e-001  0.000000e+000  1.890381e-001
      vertex  1.109025e-001  1.000000e-001  1.890381e-001
      vertex  1.387779e-017  0.000000e+000  2.775558e-017
    endloop
  endfacet
  facet normal -8.625244e-001  0.000000e+000  5.060152e-001
    outer loop
      vertex  1.387779e-017  0.000000e+000  2.775558e-017
      vertex  1.109025e-001  1.000000e-001  1.890381e-001
      vertex  1.387779e-017  1.000000e-001  2.775558e-017
    endloop
  endfacet
endsolid CATIA STL
